<?xml version="1.0" standalone="no"?>
<!DOCTYPE svg PUBLIC "-//W3C//DTD SVG 20010904//EN"
 "http://www.w3.org/TR/2001/REC-SVG-20010904/DTD/svg10.dtd">
<svg version="1.0" xmlns="http://www.w3.org/2000/svg"
 width="500.000000pt" height="500.000000pt" viewBox="0 0 500.000000 500.000000"
 preserveAspectRatio="xMidYMid meet">

<g transform="translate(0.000000,500.000000) scale(0.100000,-0.100000)"
fill="#005510" stroke="none">
<path d="M2405 4873 c-225 -9 -527 -62 -658 -115 -29 -11 -68 -25 -87 -30 -19
-6 -55 -19 -80 -30 -247 -111 -406 -204 -578 -340 -64 -50 -372 -354 -372
-366 0 -5 -11 -22 -25 -38 -25 -28 -131 -184 -173 -254 -46 -75 -142 -280
-180 -385 -58 -155 -97 -315 -122 -495 -19 -133 -22 -183 -17 -360 3 -133 13
-251 26 -335 22 -137 79 -360 112 -434 10 -24 19 -48 19 -53 0 -19 103 -233
155 -323 35 -60 149 -229 206 -305 23 -30 104 -116 179 -190 224 -219 369
-323 625 -450 314 -154 584 -223 970 -245 111 -6 420 15 515 36 229 50 392
102 560 181 110 50 311 164 375 211 300 221 530 472 697 762 20 34 107 211
132 267 40 90 86 234 119 368 92 386 84 775 -27 1210 -9 35 -77 224 -96 267
-189 426 -433 729 -825 1020 -114 85 -410 237 -575 295 -255 90 -608 143 -875
131z m135 -180 c-1 -70 -69 -228 -157 -365 -15 -24 -33 -52 -39 -63 -6 -11
-28 -49 -49 -85 -200 -342 -275 -596 -275 -938 0 -84 3 -158 6 -164 4 -7 2 -8
-4 -4 -13 8 -22 36 -61 206 -81 352 -78 649 9 866 48 120 115 225 229 358 57
67 117 140 134 164 l30 42 89 0 c77 0 88 -2 88 -17z m327 -14 c70 -11 129 -22
131 -23 1 -2 8 -46 14 -97 16 -135 -3 -310 -48 -439 -55 -163 -102 -250 -260
-490 -121 -185 -142 -220 -193 -325 -56 -115 -90 -217 -108 -320 -17 -96 -23
-330 -10 -380 17 -63 -20 -1 -56 95 -179 477 -147 862 115 1385 23 44 51 100
63 125 96 187 165 381 165 462 0 35 12 36 187 7z m-753 -11 c-5 -7 -36 -45
-70 -85 -60 -69 -145 -189 -176 -249 -8 -16 -22 -42 -31 -59 -191 -350 -205
-831 -36 -1268 17 -44 50 -121 74 -171 24 -50 41 -93 38 -96 -5 -5 -210 202
-236 240 -140 203 -203 327 -244 480 -26 97 -28 120 -28 285 0 186 6 227 61
392 21 64 121 263 145 289 10 11 19 24 19 28 0 5 14 24 30 43 17 18 30 37 30
41 0 22 73 56 197 91 174 50 240 61 227 39z m1161 -98 c93 -37 297 -134 333
-159 15 -10 66 -44 115 -76 75 -50 87 -61 81 -79 -4 -11 -13 -42 -19 -68 -21
-76 -115 -232 -208 -343 -60 -71 -26 -35 -329 -348 -267 -274 -391 -407 -416
-447 -9 -14 -35 -47 -57 -75 -62 -75 -135 -189 -186 -292 -25 -51 -49 -90 -53
-86 -11 12 -6 197 8 258 50 225 98 323 348 718 223 352 300 561 302 817 1 47
-3 113 -7 148 -5 41 -4 62 2 62 6 0 45 -14 86 -30z m-1877 -157 c-1 -5 -26
-55 -55 -113 -79 -162 -113 -272 -131 -436 -14 -122 -14 -159 -3 -273 26 -272
137 -535 320 -761 70 -87 68 -82 35 -70 -41 16 -281 138 -326 166 -21 13 -40
24 -43 24 -12 0 -182 131 -216 167 -91 96 -157 218 -190 353 -19 79 -23 123
-24 256 l0 161 40 49 c101 123 258 267 405 370 130 91 199 131 188 107z m2596
-391 c51 -160 40 -351 -30 -515 -30 -70 -115 -209 -169 -276 -47 -58 -239
-267 -364 -396 -152 -156 -286 -303 -329 -360 -113 -149 -164 -228 -239 -370
-65 -124 -130 -336 -154 -505 -14 -97 -19 -91 -43 51 -57 342 -8 672 146 974
112 221 243 383 587 725 263 262 404 417 458 505 58 97 81 140 93 182 7 23 16
40 21 38 4 -3 14 -27 23 -53z m216 -242 c91 -246 88 -494 -7 -722 -25 -60 -49
-111 -55 -114 -5 -3 -13 -16 -17 -27 -13 -33 -116 -173 -185 -252 -33 -38
-176 -184 -316 -325 -323 -324 -410 -418 -501 -540 -91 -122 -153 -219 -204
-315 -25 -49 -48 -92 -51 -94 -7 -8 7 121 22 194 20 100 62 253 79 286 8 15
15 33 15 40 0 17 77 183 113 243 45 75 146 226 176 262 14 17 37 46 51 64 45
58 97 115 325 355 94 99 188 198 208 220 225 249 331 495 314 733 -4 47 -4 83
-2 81 2 -3 18 -43 35 -89z m-3594 -295 c22 -146 78 -287 169 -420 11 -16 58
-68 105 -115 77 -78 133 -122 238 -188 46 -28 339 -172 352 -172 21 0 277
-130 295 -149 22 -26 22 -26 -41 -1 -29 10 -101 24 -160 30 -504 51 -730 126
-912 302 -127 123 -223 339 -226 508 -1 60 3 74 56 180 32 63 68 131 80 150
l23 35 3 -30 c1 -16 9 -75 18 -130z m3839 -32 c18 -44 59 -206 76 -306 7 -42
9 -137 7 -255 -4 -159 -9 -203 -32 -297 -96 -395 -240 -576 -861 -1084 -49
-41 -100 -84 -112 -95 -12 -12 -50 -46 -84 -76 -163 -145 -284 -278 -374 -409
-60 -88 -128 -223 -140 -279 -4 -19 -11 -29 -17 -26 -27 17 15 321 65 476 105
322 284 580 688 992 119 122 244 250 279 286 68 71 208 231 257 295 55 72 149
239 180 320 55 141 76 354 46 473 -8 35 5 26 22 -15z m-4086 -562 c17 -38 45
-86 61 -106 17 -21 30 -41 30 -44 0 -7 130 -141 160 -166 33 -27 136 -88 189
-112 139 -63 346 -117 621 -164 159 -27 350 -74 443 -110 244 -93 404 -248
484 -468 25 -69 24 -84 -4 -59 -40 36 -166 87 -283 116 -132 33 -306 59 -611
92 -304 33 -548 89 -705 162 -183 86 -329 226 -409 393 -64 132 -73 169 -64
268 10 110 39 267 49 267 4 0 21 -31 39 -69z m4341 -368 c-2 -126 -39 -429
-69 -548 -88 -362 -285 -723 -538 -988 -146 -152 -269 -253 -458 -374 -75 -49
-277 -146 -385 -186 -95 -35 -172 -59 -176 -54 -6 6 47 138 84 215 46 92 135
232 199 312 25 30 59 73 76 95 43 53 319 329 441 440 172 157 216 198 315 295
94 93 203 214 232 256 8 12 34 50 59 85 25 35 50 75 57 88 7 13 22 40 32 60
38 69 69 147 92 229 13 45 27 82 31 82 5 0 8 -3 8 -7z m-4280 -463 c119 -119
249 -195 440 -257 117 -38 372 -88 525 -104 93 -9 170 -19 400 -50 365 -48
659 -202 726 -378 28 -74 54 -180 46 -188 -4 -3 -32 10 -64 29 -74 43 -220 96
-303 109 -188 28 -370 48 -500 54 -195 8 -318 21 -485 50 -445 78 -700 272
-849 645 -23 56 -67 211 -66 229 1 3 13 -10 28 -29 14 -19 60 -69 102 -110z
m195 -730 c10 -16 140 -88 224 -125 224 -96 463 -130 1046 -150 345 -12 527
-62 662 -182 52 -46 73 -115 73 -240 0 -90 -9 -106 -43 -75 -65 60 -238 103
-508 127 -750 66 -1122 212 -1410 555 -52 62 -75 100 -60 100 5 0 13 -4 16
-10z m825 -741 c45 -12 168 -27 310 -39 129 -11 296 -27 370 -36 217 -26 379
-91 446 -180 15 -19 25 -36 23 -38 -19 -18 -293 -7 -459 19 -211 33 -439 104
-621 194 -154 77 -229 125 -166 107 12 -4 56 -16 97 -27z"/>
</g>
</svg>
